<svg xmlns="http://www.w3.org/2000/svg" width="216.146" height="141.592" viewBox="0 0 216.146 141.592">
  <g id="Group_9" data-name="Group 9" transform="translate(-0.002 -0.005)">
    <path id="Path_2" data-name="Path 2" d="M94.187,161.059c-1.627,4.927,3.157,9.358,6.921,12.926a50.7,50.7,0,0,1,11.93,17.387,28,28,0,0,1,2.469,12.522c-.865,12.147-12.3,20.239-21.443,28.285a13.258,13.258,0,0,0-3.344,3.905c-2.422,4.978,1.7,10.714,6.23,13.888,16.15,11.3,39.459,7.938,55.124-4.024,8.112-6.2,15.084-14.622,24.914-17.376,6.285-1.752,12.956-.922,19.46-.381a207.188,207.188,0,0,0,29.315.348c3.429-.212,7.014-.542,9.885-2.426,7.271-4.764,6.044-16.058,11.29-22.988,3.772-4.98,10.216-6.9,15.825-9.652A49.51,49.51,0,0,0,283.5,174.235c4.5-7.665,6.836-16.378,9.112-24.969,1.716-6.455,3.439-13.215,1.986-19.735s-7.192-12.609-13.846-12.036c-5.109.439-9.173,4.476-14.094,5.921-11.786,3.471-23.229-8.584-35.456-7.421-7.7.731-13.908,6.569-18.6,12.714s-8.667,13.064-14.865,17.692c-9.642,7.2-22.852,7.459-34.655,5.126s-23.128-6.925-35.062-8.455c-7.031-.9-12.42,3.289-18.752,5.592C103.45,150.779,96.34,154.543,94.187,161.059Z" transform="translate(-90 -115.91)" fill="#222" opacity="0.1"/>
    <ellipse id="Ellipse_3" data-name="Ellipse 3" cx="15.414" cy="4.683" rx="15.414" ry="4.683" transform="translate(13.82 132.23)" fill="#222" opacity="0.1"/>
    <ellipse id="Ellipse_4" data-name="Ellipse 4" cx="41.167" cy="2.731" rx="41.167" ry="2.731" transform="translate(133.813 74.284)" fill="#222" opacity="0.1"/>
    <g id="Group_4" data-name="Group 4" transform="translate(135.375 14.499)" opacity="0.5">
      <path id="Path_3" data-name="Path 3" d="M700.273,68.4h0a2.153,2.153,0,0,1,2.153,2.153v59.864H698.12V70.551A2.153,2.153,0,0,1,700.273,68.4Z" transform="translate(-685.556 -68.4)" fill="#222"/>
      <path id="Path_4" data-name="Path 4" d="M923.164,68.4h0a2.153,2.153,0,0,1,2.153,2.153v59.864H921V70.551a2.153,2.153,0,0,1,2.164-2.151Z" transform="translate(-861.206 -68.4)" fill="#222"/>
      <rect id="Rectangle_11" data-name="Rectangle 11" width="4.306" height="76.677" rx="2.153" transform="translate(76.677 9.076) rotate(90)" fill="#222"/>
      <rect id="Rectangle_12" data-name="Rectangle 12" width="3.374" height="16.173" rx="1.687" transform="translate(7.911 3.141)" fill="#222"/>
      <rect id="Rectangle_13" data-name="Rectangle 13" width="3.374" height="13.149" rx="1.687" transform="translate(4.537 4.654)" fill="#222"/>
      <rect id="Rectangle_14" data-name="Rectangle 14" width="3.374" height="16.173" rx="1.687" transform="translate(68.764 19.313) rotate(180)" fill="#222"/>
      <rect id="Rectangle_15" data-name="Rectangle 15" width="3.374" height="13.149" rx="1.687" transform="translate(72.138 17.8) rotate(180)" fill="#222"/>
    </g>
    <g id="Group_5" data-name="Group 5" transform="translate(165.811 39.555)" opacity="0.5">
      <path id="Path_5" data-name="Path 5" d="M786.094,186.64h8.8a3.6,3.6,0,0,1,3.6,3.6v15.122h-16V190.242A3.6,3.6,0,0,1,786.094,186.64Z" transform="translate(-782.492 -186.64)" fill="#222"/>
      <rect id="Rectangle_16" data-name="Rectangle 16" width="2.342" height="7.805" transform="translate(6.828 17.366)" fill="#222"/>
      <rect id="Rectangle_17" data-name="Rectangle 17" width="2.342" height="7.805" transform="translate(2.145 26.145)" fill="#222"/>
      <rect id="Rectangle_18" data-name="Rectangle 18" width="2.342" height="7.805" transform="translate(11.901 26.145)" fill="#222"/>
      <rect id="Rectangle_19" data-name="Rectangle 19" width="15.999" height="2.147" transform="translate(0 24.583)" fill="#222"/>
    </g>
    <ellipse id="Ellipse_5" data-name="Ellipse 5" cx="87.798" cy="6.438" rx="87.798" ry="6.438" transform="translate(12.456 116.039)" fill="#222" opacity="0.1"/>
    <path id="Path_6" data-name="Path 6" d="M670.36,568.277s6.048,2.731,8.974,2.731a38.4,38.4,0,0,1,4.874,1.562c1.753.782,8.584,1.17,8.584,1.17s8,2.926,8.974,4.293,3.9-4.874,3.9-4.874l-1.562-3.9L674.651,563.6Z" transform="translate(-547.375 -468.727)" fill="#ffb9b9"/>
    <path id="Path_7" data-name="Path 7" d="M670.36,568.277s6.048,2.731,8.974,2.731a38.4,38.4,0,0,1,4.874,1.562c1.753.782,8.584,1.17,8.584,1.17s8,2.926,8.974,4.293,3.9-4.874,3.9-4.874l-1.562-3.9L674.651,563.6Z" transform="translate(-547.375 -468.727)" opacity="0.05"/>
    <path id="Path_8" data-name="Path 8" d="M811.23,601.515s3.706,4.874,2.147,7.8-.975,2.926,0,3.121,6.438,1.367,7.025-2.926,1.757-13.852,1.757-13.852l-8.01-.782S816.3,602.1,811.23,601.515Z" transform="translate(-658.394 -493.378)" fill="#737a9d"/>
    <path id="Path_9" data-name="Path 9" d="M593.94,543.681l16.779,7.8s5.268-4.1,4.874-6.243l-19.51-4.683Z" transform="translate(-487.149 -450.569)" fill="#4c4c78"/>
    <path id="Path_10" data-name="Path 10" d="M593.94,543.681l16.779,7.8s5.268-4.1,4.874-6.243l-19.51-4.683Z" transform="translate(-487.149 -450.569)" opacity="0.1"/>
    <path id="Path_11" data-name="Path 11" d="M761.632,551.6l-1.763,4.291-4.09.971a26.128,26.128,0,0,0-3.664-2.56c-2.2-1.271-5.1-2.515-7.841-2.318,0,0-10.926-1.757-11.511-2.543,0,0-7.025-1.562-8.584-1.367a11.008,11.008,0,0,1-3.84-1.034c-1.579-.636-2.99-1.307-2.99-1.307l5.073-8a13.636,13.636,0,0,0,1.822.636,37.579,37.579,0,0,0,10.47,1.305c8.194,0,19.51,8.39,19.51,8.39s.112.038.305.1c.848.256,3.263.86,4.378-.1C760.266,546.914,761.632,551.6,761.632,551.6Z" transform="translate(-584.408 -448.339)" fill="#ffb9b9"/>
    <path id="Path_12" data-name="Path 12" d="M890.927,589.4l-1.763,4.291-4.09.971a26.124,26.124,0,0,0-3.664-2.56c5.95.447,2.4-6.122,2.4-6.122h.013c.848.256,3.263.86,4.378-.1C889.56,584.717,890.927,589.4,890.927,589.4Z" transform="translate(-713.702 -486.142)" opacity="0.1"/>
    <path id="Path_13" data-name="Path 13" d="M881.52,591.716s4.719,6.618,2.734,10.345-1.242,3.725,0,3.975,8.2,1.74,8.943-3.725c.572-4.2.07-12.267-.193-15.768A1.672,1.672,0,0,0,891.185,585l-6.9.636S887.979,592.462,881.52,591.716Z" transform="translate(-713.789 -485.59)" fill="#737a9d"/>
    <path id="Path_14" data-name="Path 14" d="M262.71,524.192l.195,9.561,2.147,1.56h7.415l1.365-1.95v-9.171l-2.147-1.952h-7.023Z" transform="translate(-207.038 -411.569)" fill="#222"/>
    <path id="Path_15" data-name="Path 15" d="M353.88,648.28s1.367,8.779,0,9.561l-.975-.195-.195-9.364Z" transform="translate(-297.038 -535.462)" fill="#fff" opacity="0.2"/>
    <path id="Path_16" data-name="Path 16" d="M433.714,638.792l1.562-1.562h7.417l1.562,1.562s1.952,5.658.39,9.364l-1.761,1.757h-7.417l-1.757-1.562Z" transform="translate(-360.873 -526.754)" fill="#222"/>
    <path id="Path_17" data-name="Path 17" d="M262.71,524.192l.195,9.561,2.147,1.56h7.415l1.365-1.95v-9.171l-2.147-1.952h-7.023Z" transform="translate(-207.038 -411.569)" opacity="0.1"/>
    <path id="Path_18" data-name="Path 18" d="M433.714,638.792l1.562-1.562h7.417l1.562,1.562s1.952,5.658.39,9.364l-1.761,1.757h-7.417l-1.757-1.562Z" transform="translate(-360.873 -526.754)" opacity="0.1"/>
    <path id="Path_19" data-name="Path 19" d="M435.467,644.99s1.562,6.83,0,9.169H433.71V644.6Z" transform="translate(-360.873 -532.562)" fill="#fff" opacity="0.2"/>
    <path id="Path_20" data-name="Path 20" d="M405.19,491.76s.78,7.61.78,8.584A65.96,65.96,0,0,0,406.75,514c1.17,6.241-.78,14.045-.78,14.045h6.438l2.732-21.072-1.952-11.121-.78-3.511Z" transform="translate(-338.397 -412.11)" fill="#ffb9b9"/>
    <path id="Path_21" data-name="Path 21" d="M405.19,491.76s.78,7.61.78,8.584A65.96,65.96,0,0,0,406.75,514c1.17,6.241-.78,14.045-.78,14.045h6.438l2.732-21.072-1.952-11.121-.78-3.511Z" transform="translate(-338.397 -412.11)" opacity="0.05"/>
    <path id="Path_22" data-name="Path 22" d="M383.327,400.06s-8.584.195-1.757,14.437a67.478,67.478,0,0,1,1.757,6.83c0,.977,8.779.975,9.748,0s-1.562-8.974-1.562-12.683S388.985,398.891,383.327,400.06Z" transform="translate(-317.704 -339.726)" fill="#cbcdda"/>
    <path id="Path_23" data-name="Path 23" d="M383.327,400.06s-8.584.195-1.757,14.437a67.478,67.478,0,0,1,1.757,6.83c0,.977,8.779.975,9.748,0s-1.562-8.974-1.562-12.683S388.985,398.891,383.327,400.06Z" transform="translate(-317.704 -339.726)" opacity="0.05"/>
    <path id="Path_24" data-name="Path 24" d="M334.927,361s7.417,8,13.657,2.147l-.78,20.682s-10.146-12.291-17.165-11.316Z" transform="translate(-279.645 -309.059)" fill="#ffb9b9"/>
    <path id="Path_25" data-name="Path 25" d="M724.206,538.436c-.3,2.287-1.229,7.1-3.905,8.661-1.579-.636-2.99-1.307-2.99-1.307l5.073-8A13.629,13.629,0,0,0,724.206,538.436Z" transform="translate(-584.376 -448.386)" opacity="0.1"/>
    <path id="Path_26" data-name="Path 26" d="M593.863,464.513s-.585,9.561-5.268,10.341l-28.285-5.1a8.537,8.537,0,0,1-3.759-1.7,19.427,19.427,0,0,1-3.371-3.238,2.69,2.69,0,0,1-.676-1.674c.195-2.147,8.779-7.22,5.853-16.194a5.349,5.349,0,0,1,1.373-.788c2.443-1.015,8.067-1.761,16.186,6.641C575.914,452.813,590.936,464.911,593.863,464.513Z" transform="translate(-454.489 -375.7)" fill="#4c4c78"/>
    <path id="Path_27" data-name="Path 27" d="M296.78,527.88l.195,9.561L299.119,539h7.415l1.367-1.952V527.88l-2.147-1.95H298.73Z" transform="translate(-233.888 -414.477)" fill="#222"/>
    <path id="Path_28" data-name="Path 28" d="M387.95,652s1.367,8.779,0,9.561l-.975-.195L386.78,652Z" transform="translate(-323.888 -538.394)" fill="#fff" opacity="0.2"/>
    <path id="Path_29" data-name="Path 29" d="M488.06,641.552l1.562-1.562h7.417l1.562,1.562s1.952,5.658.39,9.364l-1.757,1.757h-7.417l-1.757-1.562Z" transform="translate(-403.706 -528.929)" fill="#222"/>
    <path id="Path_30" data-name="Path 30" d="M489.807,647.75s1.562,6.83,0,9.169H488.05V647.36Z" transform="translate(-403.698 -534.737)" fill="#fff" opacity="0.2"/>
    <path id="Path_31" data-name="Path 31" d="M433.442,664.86H444a1.583,1.583,0,0,1,1.5,1.659h0a1.584,1.584,0,0,1-1.5,1.659H433.442a1.6,1.6,0,0,1-1.483-1.852h0A1.559,1.559,0,0,1,433.442,664.86Z" transform="translate(-359.484 -548.529)" fill="#222"/>
    <path id="Path_32" data-name="Path 32" d="M558.93,463.177a54.745,54.745,0,0,1-5.762,3.236,2.69,2.69,0,0,1-.676-1.674c.195-2.147,8.779-7.22,5.853-16.194a5.348,5.348,0,0,1,1.373-.788,5.961,5.961,0,0,0,1.358-.186S562.831,460.446,558.93,463.177Z" transform="translate(-454.481 -377.285)" opacity="0.1"/>
    <path id="Path_33" data-name="Path 33" d="M375.684,373.721a43.477,43.477,0,0,0,5.755,4.781c2.611,1.71-2.049-15.512-2.049-15.512s2.89-2.331,4.588-3.715a5.815,5.815,0,0,1,4.043-1.314c3.905.252,11.059,1.894,16.832,9.811,8.389,11.511,16,9.169,16,9.169s1.757,12.878-2.147,15.609-8.194,3.706-7.417,5.268-3.511-7.61-13.268-9.169-20.487-8.389-20.29-11.706C377.733,376.942,374.9,374.7,375.684,373.721Z" transform="translate(-315.036 -306.656)" fill="#cbcdda"/>
    <path id="Path_34" data-name="Path 34" d="M341.845,367.583a9.8,9.8,0,0,0-.148-1.683c-2.556-1.271-2.193-3-2.193-3l-4.293,11.511a9.09,9.09,0,0,1,5.031,1.06C342.523,373.667,341.845,370.7,341.845,367.583Z" transform="translate(-283.246 -310.557)" opacity="0.1"/>
    <circle id="Ellipse_6" data-name="Ellipse 6" cx="9.756" cy="9.756" r="9.756" transform="translate(40.258 47.067)" fill="#ffb9b9"/>
    <path id="Path_35" data-name="Path 35" d="M268.418,334.035a2.506,2.506,0,0,1-.981,1.483,1.86,1.86,0,0,1-2.079-.3,3.506,3.506,0,0,1-1.03-1.945,6.531,6.531,0,0,1,.106-3.189c.254-.879.693-1.7.877-2.6.2-.958.1-1.96.318-2.914a8.923,8.923,0,0,1,1.981-3.412,3.522,3.522,0,0,1,2.295-1.526l4.083-1.231a13.8,13.8,0,0,1,2.378-.568,8.236,8.236,0,0,1,3.092.271,7.122,7.122,0,0,1,2.242,1,8.292,8.292,0,0,1,1.769,1.791c2.159,2.823,3.391,7.44,5.618,10.218-.879.271-1.759-.636-2.638-.36a.619.619,0,0,1-.4.032.651.651,0,0,1-.29-.322,6.753,6.753,0,0,0-3.452-2.954c-1.081-.409-2.543-.407-3.134.585a3.518,3.518,0,0,0-.133,2.289,2.309,2.309,0,0,1-.526,2.172,2.271,2.271,0,0,1-1.14.386,12.562,12.562,0,0,1-5.649-.553c-.636-.212-1.282-.875-1.954-.663C268.867,332.017,268.657,333.266,268.418,334.035Z" transform="translate(-227.268 -275.012)" opacity="0.1"/>
    <path id="Path_36" data-name="Path 36" d="M267.408,333.033a2.506,2.506,0,0,1-.981,1.483,1.859,1.859,0,0,1-2.079-.3,3.506,3.506,0,0,1-1.03-1.945,6.531,6.531,0,0,1,.106-3.189c.254-.879.693-1.7.877-2.6.2-.958.1-1.96.318-2.914a8.923,8.923,0,0,1,1.981-3.412,3.522,3.522,0,0,1,2.295-1.526l4.083-1.231a13.8,13.8,0,0,1,2.378-.566,8.237,8.237,0,0,1,3.092.271,7.122,7.122,0,0,1,2.242,1,8.291,8.291,0,0,1,1.769,1.791c2.159,2.823,3.391,7.44,5.618,10.218-.879.271-1.759-.636-2.638-.36a.619.619,0,0,1-.4.032.651.651,0,0,1-.295-.322,6.753,6.753,0,0,0-3.452-2.954c-1.081-.409-2.543-.407-3.134.585a3.518,3.518,0,0,0-.134,2.289,2.308,2.308,0,0,1-.526,2.172,2.272,2.272,0,0,1-1.14.386,12.562,12.562,0,0,1-5.649-.553c-.636-.212-1.282-.875-1.954-.663C267.857,331.015,267.647,332.263,267.408,333.033Z" transform="translate(-226.472 -274.224)" fill="#b96b6b"/>
    <g id="Group_6" data-name="Group 6" transform="translate(60.497 55.802)" opacity="0.1">
      <path id="Path_37" data-name="Path 37" d="M394.341,379.22l-.661.534s2.732,10.093,2.84,14.058C397.914,393.435,395.231,382.636,394.341,379.22Z" transform="translate(-389.823 -379.22)"/>
      <path id="Path_38" data-name="Path 38" d="M419.03,449.646c-3.9,2.732-8.194,3.706-7.417,5.268s-3.511-7.61-13.268-9.169c-9.152-1.464-19.163-7.565-20.205-11.053-1.462-1.25-2.526-2.312-2.526-2.312-.78.975,2.049,3.219,2.049,3.219-.195,3.316,10.536,10.146,20.29,11.706s14.047,10.731,13.268,9.169,3.511-2.543,7.417-5.268c1.117-.782,1.769-2.395,2.134-4.3A5.063,5.063,0,0,1,419.03,449.646Z" transform="translate(-375.478 -421.115)"/>
    </g>
    <path id="Path_39" data-name="Path 39" d="M444.542,493.414c-.585.78-.975,8.779-.975,8.779s2.331,11.511-4.874,10.341-.975-9.364-.975-9.364l-.975-11.316c-3.706-9.748-2.926-16.779-2.926-16.779l-.693-6.372-.284-2.6,8.389-1.952c-.229.305-.131,2.208.074,4.418.32,3.463.9,7.677.9,7.677C443.955,478.2,445.126,492.633,444.542,493.414Z" transform="translate(-360.188 -390.351)" fill="#ffb9b9"/>
    <path id="Path_40" data-name="Path 40" d="M415.547,380.729s-8.584.195-1.757,14.437a67.48,67.48,0,0,1,1.757,6.83c0,.977,8.779.975,9.748,0s-1.562-8.974-1.562-12.683S421.205,379.557,415.547,380.729Z" transform="translate(-343.096 -324.491)" opacity="0.1"/>
    <path id="Path_41" data-name="Path 41" d="M441.266,468.568a24.808,24.808,0,0,1-8.182.136l-.284-2.6,8.389-1.952C440.965,464.453,441.062,466.356,441.266,468.568Z" transform="translate(-360.156 -390.351)" opacity="0.1"/>
    <path id="Path_42" data-name="Path 42" d="M413.707,380.729s-8.584.195-1.757,14.437a67.48,67.48,0,0,1,1.757,6.83c0,.977,8.779.975,9.748,0s-1.562-8.974-1.562-12.683S419.365,379.557,413.707,380.729Z" transform="translate(-341.646 -324.491)" fill="#cbcdda"/>
    <g id="Group_7" data-name="Group 7" transform="translate(8.677 86.778)" opacity="0.5">
      <path id="Path_43" data-name="Path 43" d="M48.166,409.5l-6.213.127-1.013,1.394v4.819l1.267.888h5.959l1.269-1.394v-4.564Z" transform="translate(-40.94 -409.498)" fill="#222"/>
      <path id="Path_44" data-name="Path 44" d="M141.343,526.163s-5.707.888-6.213,0l.127-.636,6.086-.127Z" transform="translate(-134.242 -525.4)" fill="#fff" opacity="0.2"/>
      <path id="Path_45" data-name="Path 45" d="M140.558,591.23l1.015,1.015v4.819l-1.015,1.015s-3.677,1.271-6.086.254l-1.142-1.142v-4.819l1.015-1.142Z" transform="translate(-132.824 -577.28)" fill="#222"/>
      <path id="Path_46" data-name="Path 46" d="M144.079,592.372s-4.437,1.015-5.959,0V591.23h6.213Z" transform="translate(-136.599 -577.28)" fill="#fff" opacity="0.2"/>
      <path id="Path_47" data-name="Path 47" d="M148.047,555.741V562.6a1.03,1.03,0,0,1-1.079.973h0a1.03,1.03,0,0,1-1.079-.973v-6.859a1.044,1.044,0,0,1,1.2-.966h0A1.015,1.015,0,0,1,148.047,555.741Z" transform="translate(-142.722 -548.545)" fill="#222"/>
      <path id="Path_48" data-name="Path 48" d="M95.118,410.42l-6.213.127-1.015,1.394v4.819l1.269.888h5.959l1.267-1.394v-4.565Z" transform="translate(-77.941 -410.223)" fill="#222"/>
      <path id="Path_49" data-name="Path 49" d="M188.293,527.093s-5.707.888-6.213,0l.127-.636,6.086-.127Z" transform="translate(-171.243 -526.133)" fill="#fff" opacity="0.2"/>
      <path id="Path_50" data-name="Path 50" d="M187.508,592.152l1.015,1.015v4.819L187.508,599s-3.677,1.271-6.086.254l-1.142-1.142v-4.821l1.015-1.142Z" transform="translate(-169.824 -578.005)" fill="#222"/>
      <path id="Path_51" data-name="Path 51" d="M191.039,593.292s-4.437,1.015-5.959,0V592.15h6.213Z" transform="translate(-173.607 -578.005)" fill="#fff" opacity="0.2"/>
      <path id="Path_52" data-name="Path 52" d="M194.977,556.661v6.859a1.03,1.03,0,0,1-1.079.973h0a1.03,1.03,0,0,1-1.079-.973v-6.859a1.044,1.044,0,0,1,1.2-.966h0A1.015,1.015,0,0,1,194.977,556.661Z" transform="translate(-179.707 -549.27)" fill="#222"/>
      <path id="Path_53" data-name="Path 53" d="M159.65,427.74l-5.115.1-.835,1.149v3.967l1.045.729h4.906l1.043-1.148v-3.757Z" transform="translate(-129.805 -423.873)" fill="#222"/>
      <path id="Path_54" data-name="Path 54" d="M252.255,544.275s-4.7.731-5.115,0l.1-.521,5.01-.1Z" transform="translate(-222.516 -539.783)" fill="#fff" opacity="0.2"/>
      <path id="Path_55" data-name="Path 55" d="M251.62,597.83l.835.835v3.967l-.835.835s-3.026,1.045-5.01.212l-.941-.939v-3.971l.835-.939Z" transform="translate(-221.358 -582.482)" fill="#222"/>
      <path id="Path_56" data-name="Path 56" d="M254.516,598.769s-3.653.835-4.906,0v-.939h5.115Z" transform="translate(-224.463 -582.482)" fill="#fff" opacity="0.2"/>
      <path id="Path_57" data-name="Path 57" d="M257.786,568.595v5.647a.848.848,0,0,1-.888.8h0a.848.848,0,0,1-.888-.8v-5.643A.858.858,0,0,1,257,567.8h0A.835.835,0,0,1,257.786,568.595Z" transform="translate(-229.507 -558.807)" fill="#222"/>
      <path id="Path_58" data-name="Path 58" d="M198.3,428.49l-5.115.106-.835,1.146v3.967l1.045.731H198.3l1.045-1.149v-3.757Z" transform="translate(-160.265 -424.464)" fill="#222"/>
      <path id="Path_59" data-name="Path 59" d="M290.915,545.035s-4.7.731-5.115,0l.1-.521,5.009-.1Z" transform="translate(-252.984 -540.382)" fill="#fff" opacity="0.2"/>
      <path id="Path_60" data-name="Path 60" d="M290.278,598.574l.835.835v3.967l-.835.835s-3.026,1.045-5.009.212l-.939-.939v-3.975l.835-.939Z" transform="translate(-251.825 -583.065)" fill="#222"/>
      <path id="Path_61" data-name="Path 61" d="M293.176,599.509s-3.653.835-4.906,0v-.939h5.113Z" transform="translate(-254.931 -583.065)" fill="#fff" opacity="0.2"/>
      <path id="Path_62" data-name="Path 62" d="M296.4,569.355V575a.848.848,0,0,1-.888.8h0a.848.848,0,0,1-.888-.8v-5.647a.858.858,0,0,1,.992-.795h0A.835.835,0,0,1,296.4,569.355Z" transform="translate(-259.935 -559.406)" fill="#222"/>
    </g>
    <g id="Group_8" data-name="Group 8" transform="translate(19.818 119.406)" opacity="0.8">
      <path id="Path_63" data-name="Path 63" d="M188.53,703.727s-3-1.017-4.45,1.63a4.827,4.827,0,0,0,.064,4.647,6.823,6.823,0,0,0,6.612,3.747c3.145-.167,4.189-2.568,4.473-4.8a4.931,4.931,0,0,0-6.548-5.279Z" transform="translate(-183.515 -698.296)" fill="#222"/>
      <path id="Path_64" data-name="Path 64" d="M184.781,709.907a4.827,4.827,0,0,1-.064-4.647c1.445-2.647,4.45-1.63,4.45-1.63l.155-.055a4.887,4.887,0,0,1,3.528.078,4.887,4.887,0,0,0-4.166-.4l-.155.055s-3-1.017-4.45,1.63a4.827,4.827,0,0,0,.064,4.647,7.316,7.316,0,0,0,3.391,3.215A7.444,7.444,0,0,1,184.781,709.907Z" transform="translate(-183.515 -697.964)" fill="#fff" opacity="0.1"/>
      <path id="Path_65" data-name="Path 65" d="M199.86,711s1.113.875,3.814,0" transform="translate(-196.396 -704.297)" opacity="0.2"/>
      <path id="Path_66" data-name="Path 66" d="M198.74,681s1.907,5.171,1.75,6.523l1.511-.159s-2.543-4.533-1.907-6.357Z" transform="translate(-195.514 -680.654)" fill="#222"/>
      <path id="Path_67" data-name="Path 67" d="M198.74,681s1.907,5.171,1.75,6.523l1.511-.159s-2.543-4.533-1.907-6.357Z" transform="translate(-195.514 -680.654)" opacity="0.2"/>
      <path id="Path_68" data-name="Path 68" d="M213.56,680.139s-3-1.536-4.348-.267-1.551,4.514-1.551,4.514S212.559,685.061,213.56,680.139Z" transform="translate(-202.543 -679.369)" fill="#222"/>
      <path id="Path_69" data-name="Path 69" d="M213.56,680.139s-3-1.536-4.348-.267-1.551,4.514-1.551,4.514S212.559,685.061,213.56,680.139Z" transform="translate(-202.543 -679.369)" fill="#fff" opacity="0.1"/>
      <path id="Path_70" data-name="Path 70" d="M207.66,687.238s.788-3.766,5.9-4.238" transform="translate(-202.543 -682.231)" fill="none" stroke="#222" stroke-miterlimit="10" stroke-width="1"/>
    </g>
    <path id="Path_71" data-name="Path 71" d="M248.35,725.817s-3-1.017-4.45,1.63a4.827,4.827,0,0,0,.064,4.647,6.823,6.823,0,0,0,6.612,3.746c3.145-.167,4.189-2.568,4.473-4.8a4.931,4.931,0,0,0-6.548-5.279Z" transform="translate(-210.84 -596.299)" fill="#222"/>
    <path id="Path_72" data-name="Path 72" d="M244.631,732.007a4.827,4.827,0,0,1-.064-4.647c1.445-2.647,4.45-1.63,4.45-1.63l.155-.055a4.887,4.887,0,0,1,3.528.078,4.887,4.887,0,0,0-4.166-.4l-.155.055s-3-1.017-4.45,1.63a4.827,4.827,0,0,0,.064,4.647,7.316,7.316,0,0,0,3.391,3.215A7.444,7.444,0,0,1,244.631,732.007Z" transform="translate(-210.864 -595.975)" fill="#fff" opacity="0.1"/>
    <path id="Path_73" data-name="Path 73" d="M259.71,733.09s1.113.875,3.814,0" transform="translate(-223.745 -602.301)" opacity="0.2"/>
    <path id="Path_74" data-name="Path 74" d="M258.58,703.07s1.907,5.171,1.75,6.522l1.511-.159s-2.543-4.533-1.907-6.357Z" transform="translate(-222.855 -578.642)" fill="#222"/>
    <path id="Path_75" data-name="Path 75" d="M258.58,703.07s1.907,5.171,1.75,6.522l1.511-.159s-2.543-4.533-1.907-6.357Z" transform="translate(-222.855 -578.642)" opacity="0.2"/>
    <path id="Path_76" data-name="Path 76" d="M273.41,702.239s-3-1.536-4.348-.267-1.551,4.514-1.551,4.514S272.409,707.159,273.41,702.239Z" transform="translate(-229.892 -577.38)" fill="#222"/>
    <path id="Path_77" data-name="Path 77" d="M273.41,702.239s-3-1.536-4.348-.267-1.551,4.514-1.551,4.514S272.409,707.159,273.41,702.239Z" transform="translate(-229.892 -577.38)" fill="#fff" opacity="0.1"/>
    <path id="Path_78" data-name="Path 78" d="M267.51,709.378s.788-3.766,5.9-4.238" transform="translate(-229.892 -580.273)" fill="none" stroke="#222" stroke-miterlimit="10" stroke-width="1"/>
    <path id="Path_79" data-name="Path 79" d="M129.148,649.491s.295-.328-.259-.46v-.54h.333a2.852,2.852,0,0,0-2.259-2.789v-.655h.087V644.2h-2.14v.848h.061v.663a2.852,2.852,0,0,0-2.221,2.78h.3v.519s-.7.333,0,.926.593,1.036.593,1.036-.3,1.11-.888,1.259v10.33a2.3,2.3,0,0,0,2.295,2.295h1.814a2.3,2.3,0,0,0,2.286-2.293V652.231s-1.036-.778-.848-1.259A11.648,11.648,0,0,1,129.148,649.491Z" transform="translate(-115.796 -532.247)" fill="#222"/>
  </g>
</svg>
