<svg width="39" height="39" viewBox="0 0 39 39" fill="none" xmlns="http://www.w3.org/2000/svg">
<path d="M17.9595 23.4636H12.4499C12.1239 23.4636 11.8599 23.7276 11.8599 24.0536V32.6079C11.8599 32.9339 12.1239 33.198 12.4499 33.198H17.9595C18.2855 33.198 18.5491 32.9339 18.5491 32.6079V24.0532C18.5491 23.7272 18.2851 23.4636 17.9595 23.4636Z" fill="white"/>
<path d="M26.55 5.80243H21.0405C20.7145 5.80243 20.4504 6.06646 20.4504 6.3925V32.6075C20.4504 32.9336 20.7145 33.1976 21.0405 33.1976H26.55C26.8761 33.1976 27.1401 32.9336 27.1401 32.6075V6.3925C27.1401 6.06646 26.8761 5.80243 26.55 5.80243Z" fill="white"/>
<path d="M35.1846 13.7666H29.6751C29.349 13.7666 29.085 14.0306 29.085 14.3567V32.6075C29.085 32.9335 29.349 33.1976 29.6751 33.1976H35.1842C35.5103 33.1976 35.7743 32.9335 35.7743 32.6075V14.3567C35.7743 14.031 35.5103 13.7666 35.1846 13.7666Z" fill="white"/>
<path d="M9.32488 13.7666H3.81535C3.48931 13.7666 3.22528 14.0306 3.22528 14.3567V32.6075C3.22528 32.9335 3.48931 33.1976 3.81535 33.1976H9.32488C9.65092 33.1976 9.91495 32.9335 9.91495 32.6075V14.3567C9.91495 14.031 9.65092 13.7666 9.32488 13.7666Z" fill="white"/>
</svg>
