<svg width="26" height="27" viewBox="0 0 26 27" fill="none" xmlns="http://www.w3.org/2000/svg">
<path d="M22.875 14.8125L25.6875 17C25.9791 17.25 26.0416 17.5417 25.875 17.875L23.1875 22.5C23.0208 22.8333 22.75 22.9167 22.375 22.75L19.0625 21.4375C18.3125 21.9792 17.5625 22.4167 16.8125 22.75L16.3125 26.25C16.2708 26.625 16.0416 26.8125 15.625 26.8125H10.3125C9.93747 26.8125 9.7083 26.625 9.62497 26.25L9.12497 22.75C8.3333 22.4167 7.5833 21.9792 6.87497 21.4375L3.56247 22.75C3.18747 22.875 2.91663 22.7917 2.74997 22.5L0.0624667 17.875C-0.1042 17.5417 -0.0416999 17.25 0.249967 17L3.06247 14.8125C3.0208 14.3125 2.99997 13.875 2.99997 13.5C2.99997 13.125 3.0208 12.6875 3.06247 12.1875L0.249967 10C-0.0416999 9.75 -0.1042 9.45833 0.0624667 9.125L2.74997 4.5C2.9583 4.16667 3.22913 4.08333 3.56247 4.25L6.87497 5.5625C7.62497 5.02083 8.37497 4.58333 9.12497 4.25L9.62497 0.75C9.7083 0.375 9.93747 0.1875 10.3125 0.1875H15.625C16.0416 0.1875 16.2708 0.375 16.3125 0.75L16.8125 4.25C17.6041 4.58333 18.3541 5.02083 19.0625 5.5625L22.375 4.25C22.75 4.125 23.0208 4.20833 23.1875 4.5L25.875 9.125C26.0416 9.45833 25.9791 9.75 25.6875 10L22.875 12.1875C22.9583 12.6875 23 13.125 23 13.5C23 13.875 22.9583 14.3125 22.875 14.8125ZM12.9687 18.1875C14.2395 18.1875 15.3333 17.7292 16.25 16.8125C17.1666 15.8958 17.625 14.7917 17.625 13.5C17.625 12.2083 17.1666 11.1042 16.25 10.1875C15.3333 9.27083 14.2395 8.8125 12.9687 8.8125C11.6979 8.8125 10.6041 9.27083 9.68747 10.1875C8.7708 11.1042 8.31247 12.2083 8.31247 13.5C8.31247 14.7917 8.7708 15.8958 9.68747 16.8125C10.6041 17.7292 11.6979 18.1875 12.9687 18.1875Z" fill="white"/>
</svg>
