<svg width="20" height="17" viewBox="0 0 20 17" fill="none" xmlns="http://www.w3.org/2000/svg">
<path d="M2.42857 0C1.78447 0 1.16676 0.255867 0.711312 0.711312C0.255867 1.16676 0 1.78447 0 2.42857V14.5714C0 15.2155 0.255867 15.8332 0.711312 16.2887C1.16676 16.7441 1.78447 17 2.42857 17H17C17.6441 17 18.2618 16.7441 18.7173 16.2887C19.1727 15.8332 19.4286 15.2155 19.4286 14.5714V2.42857C19.4286 1.78447 19.1727 1.16676 18.7173 0.711312C18.2618 0.255867 17.6441 0 17 0H2.42857ZM17 1.21429C17.322 1.21429 17.6309 1.34222 17.8586 1.56994C18.0864 1.79766 18.2143 2.10652 18.2143 2.42857V10.3214L13.6279 7.95721C13.5141 7.90017 13.3851 7.88038 13.2594 7.90065C13.1336 7.92092 13.0175 7.98021 12.9273 8.07014L8.42229 12.5751L5.19229 10.4234C5.07566 10.3458 4.93578 10.3109 4.79635 10.3246C4.65693 10.3383 4.52653 10.3998 4.42729 10.4987L1.21429 13.3571V2.42857C1.21429 2.10652 1.34222 1.79766 1.56994 1.56994C1.79766 1.34222 2.10652 1.21429 2.42857 1.21429H17Z" fill="white"/>
</svg>