<svg width="37" height="37" viewBox="0 0 37 37" fill="none" xmlns="http://www.w3.org/2000/svg">
<path d="M18.5 2.3125C9.56074 2.3125 2.3125 9.56074 2.3125 18.5C2.3125 27.4393 9.56074 34.6875 18.5 34.6875C27.4393 34.6875 34.6875 27.4393 34.6875 18.5C34.6875 9.56074 27.4393 2.3125 18.5 2.3125ZM18.5 27.8945C17.7015 27.8945 17.0547 27.2478 17.0547 26.4492C17.0547 25.6507 17.7015 25.0039 18.5 25.0039C19.2985 25.0039 19.9453 25.6507 19.9453 26.4492C19.9453 27.2478 19.2985 27.8945 18.5 27.8945ZM20.7728 19.9634C20.4455 20.0897 20.164 20.3118 19.9648 20.6005C19.7656 20.8893 19.6581 21.2314 19.6562 21.5821V22.4023C19.6562 22.5613 19.5262 22.6914 19.3672 22.6914H17.6328C17.4738 22.6914 17.3438 22.5613 17.3438 22.4023V21.6255C17.3438 20.7908 17.5858 19.967 18.0628 19.2805C18.5289 18.6084 19.1793 18.0953 19.9453 17.8026C21.1738 17.3293 21.9688 16.2995 21.9688 15.1758C21.9688 13.5823 20.4114 12.2852 18.5 12.2852C16.5886 12.2852 15.0312 13.5823 15.0312 15.1758V15.4504C15.0312 15.6094 14.9012 15.7395 14.7422 15.7395H13.0078C12.8488 15.7395 12.7188 15.6094 12.7188 15.4504V15.1758C12.7188 13.7558 13.3402 12.4297 14.4676 11.4433C15.5516 10.493 16.9824 9.97266 18.5 9.97266C20.0176 9.97266 21.4484 10.4966 22.5324 11.4433C23.6598 12.4297 24.2812 13.7558 24.2812 15.1758C24.2812 17.2643 22.9046 19.1432 20.7728 19.9634Z" fill="white"/>
</svg>
