<svg width="48" height="48" viewBox="0 0 48 48" fill="none" xmlns="http://www.w3.org/2000/svg">
<path d="M24.2954 21.5156C24.2603 21.4708 24.2155 21.4345 24.1643 21.4096C24.1131 21.3847 24.057 21.3717 24.0001 21.3717C23.9431 21.3717 23.887 21.3847 23.8358 21.4096C23.7846 21.4345 23.7398 21.4708 23.7047 21.5156L18.4547 28.1578C18.4115 28.213 18.3846 28.2794 18.3772 28.3492C18.3699 28.419 18.3823 28.4895 18.4131 28.5526C18.4439 28.6156 18.4919 28.6688 18.5514 28.7059C18.611 28.743 18.6799 28.7626 18.7501 28.7625H22.2141V40.125C22.2141 40.3312 22.3829 40.5 22.5891 40.5H25.4016C25.6079 40.5 25.7766 40.3312 25.7766 40.125V28.7672H29.2501C29.5641 28.7672 29.7376 28.4062 29.5454 28.1625L24.2954 21.5156Z" fill="white"/>
<path d="M38.0344 17.1891C35.8875 11.5266 30.4172 7.5 24.0094 7.5C17.6016 7.5 12.1313 11.5219 9.98438 17.1844C5.96719 18.2391 3 21.9 3 26.25C3 31.4297 7.19531 35.625 12.3703 35.625H14.25C14.4563 35.625 14.625 35.4562 14.625 35.25V32.4375C14.625 32.2313 14.4563 32.0625 14.25 32.0625H12.3703C10.7906 32.0625 9.30469 31.4344 8.19844 30.2953C7.09687 29.1609 6.51094 27.6328 6.5625 26.0484C6.60469 24.8109 7.02656 23.6484 7.79062 22.6688C8.57344 21.6703 9.67031 20.9437 10.8891 20.6203L12.6656 20.1562L13.3172 18.4406C13.7203 17.3719 14.2828 16.3734 14.9906 15.4688C15.6894 14.5721 16.5171 13.7838 17.4469 13.1297C19.3734 11.775 21.6422 11.0578 24.0094 11.0578C26.3766 11.0578 28.6453 11.775 30.5719 13.1297C31.5047 13.7859 32.3297 14.5734 33.0281 15.4688C33.7359 16.3734 34.2984 17.3766 34.7016 18.4406L35.3484 20.1516L37.1203 20.6203C39.6609 21.3047 41.4375 23.6156 41.4375 26.25C41.4375 27.8016 40.8328 29.2641 39.7359 30.3609C39.198 30.902 38.5581 31.331 37.8533 31.6231C37.1484 31.9151 36.3926 32.0645 35.6297 32.0625H33.75C33.5438 32.0625 33.375 32.2313 33.375 32.4375V35.25C33.375 35.4562 33.5438 35.625 33.75 35.625H35.6297C40.8047 35.625 45 31.4297 45 26.25C45 21.9047 42.0422 18.2484 38.0344 17.1891Z" fill="white"/>
</svg>